<svg xmlns="http://www.w3.org/2000/svg" viewBox="0 0 640 420" role="img" aria-label="Gato hidráulico">
  <rect width="640" height="420" fill="#050505"/>
  <g transform="translate(300 250)">
    <ellipse cx="0" cy="58" rx="180" ry="18" fill="#111" opacity="0.7"/>
    <rect x="-170" y="20" width="340" height="38" rx="6" fill="#111" stroke="#222"/>
    <rect x="-150" y="8" width="300" height="18" rx="4" fill="#c41e1e"/>
    <rect x="-130" y="-8" width="260" height="20" rx="3" fill="#111"/>
    <path d="M-80 20 L-40 -60 L40 -60 L80 20 Z" fill="#1a1a1a" stroke="#333"/>
    <rect x="-20" y="-95" width="40" height="40" rx="6" fill="#222" stroke="#444"/>
    <circle cx="0" cy="-75" r="14" fill="#333" stroke="#555"/>
    <rect x="-165" y="30" width="28" height="28" rx="14" fill="#111" stroke="#333"/>
    <rect x="137" y="30" width="28" height="28" rx="14" fill="#111" stroke="#333"/>
    <rect x="-18" y="42" width="36" height="14" rx="4" fill="#c41e1e"/>
    <rect x="155" y="-20" width="80" height="12" rx="4" fill="#c41e1e" transform="rotate(-8 195 -14)"/>
    <rect x="230" y="-28" width="14" height="14" rx="3" fill="#222"/>
  </g>
</svg>
