<svg xmlns="http://www.w3.org/2000/svg" viewBox="0 0 640 420" role="img" aria-label="Espaciador de rueda">
  <defs>
    <linearGradient id="metal" x1="0%" y1="0%" x2="100%" y2="100%">
      <stop offset="0%" stop-color="#d8d8d8"/>
      <stop offset="50%" stop-color="#a8a8a8"/>
      <stop offset="100%" stop-color="#707070"/>
    </linearGradient>
    <linearGradient id="metalDark" x1="0%" y1="0%" x2="0%" y2="100%">
      <stop offset="0%" stop-color="#888"/>
      <stop offset="100%" stop-color="#444"/>
    </linearGradient>
  </defs>
  <rect width="640" height="420" fill="#050505"/>
  <g transform="translate(320 210) rotate(-12)">
    <ellipse cx="0" cy="18" rx="145" ry="42" fill="#111" opacity="0.6"/>
    <ellipse cx="0" cy="0" rx="138" ry="138" fill="url(#metalDark)"/>
    <ellipse cx="0" cy="0" rx="128" ry="128" fill="none" stroke="url(#metal)" stroke-width="14"/>
    <ellipse cx="0" cy="0" rx="52" ry="52" fill="#111" stroke="#666" stroke-width="4"/>
    <g fill="#555" stroke="#888" stroke-width="1">
      <circle cx="0" cy="-78" r="8"/><circle cx="67" cy="-39" r="8"/><circle cx="67" cy="39" r="8"/>
      <circle cx="0" cy="78" r="8"/><circle cx="-67" cy="39" r="8"/><circle cx="-67" cy="-39" r="8"/>
    </g>
    <g fill="#bbb">
      <rect x="-5" y="-95" width="10" height="22" rx="2"/>
      <rect x="72" y="-48" width="10" height="22" rx="2" transform="rotate(60 77 -37)"/>
      <rect x="72" y="26" width="10" height="22" rx="2" transform="rotate(120 77 37)"/>
      <rect x="-5" y="73" width="10" height="22" rx="2"/>
      <rect x="-82" y="26" width="10" height="22" rx="2" transform="rotate(-120 -77 37)"/>
      <rect x="-82" y="-48" width="10" height="22" rx="2" transform="rotate(-60 -77 -37)"/>
    </g>
  </g>
</svg>
