<svg xmlns="http://www.w3.org/2000/svg" viewBox="0 0 640 420" role="img" aria-label="Rin bronce multi-rayos">
  <defs>
    <radialGradient id="rimBg" cx="50%" cy="50%" r="60%">
      <stop offset="0%" stop-color="#1a1a1a"/>
      <stop offset="100%" stop-color="#050505"/>
    </radialGradient>
    <linearGradient id="bronze" x1="0%" y1="0%" x2="100%" y2="100%">
      <stop offset="0%" stop-color="#8b5a3c"/>
      <stop offset="45%" stop-color="#b87333"/>
      <stop offset="100%" stop-color="#6b4423"/>
    </linearGradient>
    <linearGradient id="bronzeShine" x1="0%" y1="0%" x2="100%" y2="0%">
      <stop offset="0%" stop-color="#a67c52" stop-opacity="0"/>
      <stop offset="50%" stop-color="#d4a574" stop-opacity="0.55"/>
      <stop offset="100%" stop-color="#a67c52" stop-opacity="0"/>
    </linearGradient>
  </defs>
  <rect width="640" height="420" fill="url(#rimBg)"/>
  <g transform="translate(320 210)">
    <circle r="168" fill="none" stroke="#2a2a2a" stroke-width="18"/>
    <circle r="158" fill="none" stroke="url(#bronze)" stroke-width="12"/>
    <g fill="url(#bronze)" stroke="#5c3d28" stroke-width="1.2">
      <path d="M0,-145 L8,-55 L0,-42 L-8,-55 Z" transform="rotate(0)"/>
      <path d="M0,-145 L8,-55 L0,-42 L-8,-55 Z" transform="rotate(30)"/>
      <path d="M0,-145 L8,-55 L0,-42 L-8,-55 Z" transform="rotate(60)"/>
      <path d="M0,-145 L8,-55 L0,-42 L-8,-55 Z" transform="rotate(90)"/>
      <path d="M0,-145 L8,-55 L0,-42 L-8,-55 Z" transform="rotate(120)"/>
      <path d="M0,-145 L8,-55 L0,-42 L-8,-55 Z" transform="rotate(150)"/>
      <path d="M0,-145 L8,-55 L0,-42 L-8,-55 Z" transform="rotate(180)"/>
      <path d="M0,-145 L8,-55 L0,-42 L-8,-55 Z" transform="rotate(210)"/>
      <path d="M0,-145 L8,-55 L0,-42 L-8,-55 Z" transform="rotate(240)"/>
      <path d="M0,-145 L8,-55 L0,-42 L-8,-55 Z" transform="rotate(270)"/>
      <path d="M0,-145 L8,-55 L0,-42 L-8,-55 Z" transform="rotate(300)"/>
      <path d="M0,-145 L8,-55 L0,-42 L-8,-55 Z" transform="rotate(330)"/>
    </g>
    <circle r="52" fill="#111" stroke="url(#bronze)" stroke-width="6"/>
    <circle r="18" fill="#222" stroke="#444" stroke-width="3"/>
    <ellipse cx="-40" cy="-40" rx="90" ry="35" fill="url(#bronzeShine)" transform="rotate(-25)"/>
  </g>
</svg>
